<?xml version="1.0" encoding="UTF-8"?><svg xmlns="http://www.w3.org/2000/svg" xmlns:xlink="http://www.w3.org/1999/xlink" viewBox="0 0 83.78 83.78"><defs><style>.cls-1{fill:url(#linear-gradient-2);}.cls-1,.cls-2,.cls-3,.cls-4{mix-blend-mode:multiply;}.cls-2{fill:url(#linear-gradient-3);}.cls-3{fill:url(#linear-gradient-4);}.cls-5{isolation:isolate;}.cls-6{fill:#474c9e;}.cls-4{fill:url(#linear-gradient);}.cls-7{fill:#804b98;}.cls-8{fill:#613b92;}</style><linearGradient id="linear-gradient" x1="44.54" y1="53.46" x2="83.78" y2="53.46" gradientUnits="userSpaceOnUse"><stop offset="0" stop-color="#fff"/><stop offset="1" stop-color="#231f20"/></linearGradient><linearGradient id="linear-gradient-2" x1="-1135.45" y1="2689.76" x2="-1096.21" y2="2689.76" gradientTransform="translate(-1096.21 2720.09) rotate(-180)" xlink:href="#linear-gradient"/><linearGradient id="linear-gradient-3" x1="29.48" y1="57.11" x2="21.97" y2="82.81" xlink:href="#linear-gradient"/><linearGradient id="linear-gradient-4" x1="671.47" y1="1948.09" x2="710.71" y2="1948.09" gradientTransform="translate(-1894.87 710.71) rotate(-90)" gradientUnits="userSpaceOnUse"><stop offset=".32" stop-color="#5ac3d5"/><stop offset=".41" stop-color="#58bed0"/><stop offset=".52" stop-color="#54b3c3"/><stop offset=".62" stop-color="#4e9fad"/><stop offset=".73" stop-color="#44838e"/><stop offset=".84" stop-color="#385f67"/><stop offset=".95" stop-color="#2a3438"/><stop offset="1" stop-color="#231f20"/></linearGradient></defs><g class="cls-5"><g id="Layer_1"><path class="cls-6" d="M50.66,23.42l29.77,29.29c4.44,4.37,4.46,11.53.04,15.92l-11.77,11.68c-4.26,4.23-11.13,4.25-15.42.05l-7.97-7.81,5.75-5.75,1.7,1.51c3.78,3.36,9.54,3.17,13.09-.44l1.75-1.78c3.76-3.82,3.71-9.97-.1-13.74l-22.96-22.66,6.12-6.27Z"/><path class="cls-4" d="M50.66,23.42l29.77,29.29c4.44,4.37,4.46,11.53.04,15.92l-11.77,11.68c-4.26,4.23-11.13,4.25-15.42.05l-7.97-7.81,5.75-5.75,1.7,1.51c3.78,3.36,9.54,3.17,13.09-.44l1.75-1.78c3.76-3.82,3.71-9.97-.1-13.74l-22.96-22.66,6.12-6.27Z"/><path class="cls-6" d="M33.12,60.37L3.34,31.08c-4.44-4.37-4.46-11.53-.04-15.92L15.08,3.48c4.26-4.23,11.13-4.25,15.42-.05l7.97,7.81-5.75,5.75-1.7-1.51c-3.78-3.36-9.54-3.17-13.09.44l-1.75,1.78c-3.76,3.82-3.71,9.97.1,13.74l22.96,22.66-6.12,6.27Z"/><path class="cls-1" d="M33.12,60.37L3.34,31.08c-4.44-4.37-4.46-11.53-.04-15.92L15.08,3.48c4.26-4.23,11.13-4.25,15.42-.05l7.97,7.81-5.75,5.75-1.7-1.51c-3.78-3.36-9.54-3.17-13.09.44l-1.75,1.78c-3.76,3.82-3.71,9.97.1,13.74l22.96,22.66-6.12,6.27Z"/><path class="cls-8" d="M60.13,50.66l-29.29,29.77c-4.37,4.44-11.53,4.46-15.92.04l-11.68-11.77c-4.23-4.26-4.25-11.13-.05-15.42l7.81-7.97,5.75,5.75-1.51,1.7c-3.36,3.78-3.17,9.54.44,13.09l1.78,1.75c3.82,3.76,9.97,3.71,13.74-.1l22.66-22.96,6.27,6.12Z"/><path class="cls-2" d="M60.13,50.66l-29.29,29.77c-4.37,4.44-11.53,4.46-15.92.04l-11.68-11.77c-4.23-4.26-4.25-11.13-.05-15.42l7.81-7.97,5.75,5.75-1.51,1.7c-3.36,3.78-3.17,9.54.44,13.09l1.78,1.75c3.82,3.76,9.97,3.71,13.74-.1l22.66-22.96,6.27,6.12Z"/><path class="cls-7" d="M23.18,33.12L52.46,3.34c4.37-4.44,11.53-4.46,15.92-.04l11.68,11.77c4.23,4.26,4.25,11.13.05,15.42l-7.81,7.97-5.75-5.75,1.51-1.7c3.36-3.78,3.17-9.54-.44-13.09l-1.78-1.75c-3.82-3.76-9.97-3.71-13.74.1l-22.66,22.96-6.27-6.12Z"/><path class="cls-3" d="M23.18,33.12L52.46,3.34c4.37-4.44,11.53-4.46,15.92-.04l11.68,11.77c4.23,4.26,4.25,11.13.05,15.42l-7.81,7.97-5.75-5.75,1.51-1.7c3.36-3.78,3.17-9.54-.44-13.09l-1.78-1.75c-3.82-3.76-9.97-3.71-13.74.1l-22.66,22.96-6.27-6.12Z"/></g></g></svg>